<svg width="1200" height="900" viewBox="0 0 1200 900" fill="none" xmlns="http://www.w3.org/2000/svg">
  <rect width="1200" height="900" fill="#F5F5F5"/>
  <rect x="100" y="120" width="1000" height="660" fill="#FFFFFF" stroke="#000000" stroke-width="8"/>
  <rect x="160" y="200" width="880" height="120" fill="#FFD700" stroke="#000000" stroke-width="6"/>
  <rect x="200" y="250" width="220" height="28" fill="#000000"/>
  <rect x="460" y="250" width="160" height="28" fill="#000000"/>
  <rect x="660" y="250" width="240" height="28" fill="#000000"/>
  <rect x="160" y="360" width="420" height="340" fill="#FFFFFF" stroke="#000000" stroke-width="6"/>
  <rect x="620" y="360" width="420" height="340" fill="#FFFFFF" stroke="#000000" stroke-width="6"/>
  <rect x="210" y="430" width="320" height="32" fill="#FF1493"/>
  <rect x="210" y="500" width="220" height="24" fill="#000000"/>
  <rect x="210" y="550" width="280" height="24" fill="#000000"/>
  <rect x="670" y="430" width="320" height="32" fill="#FFD700"/>
  <rect x="670" y="500" width="220" height="24" fill="#000000"/>
  <rect x="670" y="550" width="280" height="24" fill="#000000"/>
  <circle cx="1020" cy="120" r="56" fill="#FF1493" stroke="#000000" stroke-width="6"/>
  <path d="M1010 84L1030 84L1024 112H1040L1008 156L1016 124H1000L1010 84Z" fill="#FFFFFF"/>
</svg>
